<svg xmlns="http://www.w3.org/2000/svg" width="24" height="24" viewBox="0 0 24 24">
  <g fill="#AEAEB6" fill-rule="evenodd" transform="translate(3 4.5)">
    <polygon points="9.375 9.302 7.152 4.954 11.706 4.954"/>
    <polygon points="9.159 15.525 2.705 8.48 9.159 9.927"/>
    <polygon points="9.047 9.496 2.397 7.933 6.744 5.024"/>
    <polygon points="6.403 4.78 2.281 7.475 3.576 3.459"/>
    <polygon points="3.133 3.546 1.89 7.37 .408 4.745"/>
    <polygon points="3.286 3.025 1.413 3.842 3.559 2.016"/>
    <polygon points="11.446 .504 14.678 1.582 15.032 3.042 11.904 4.519 6.863 4.519 3.712 3.042 4.104 1.582 7.34 .504"/>
    <polygon points="9.575 15.558 9.575 9.945 16.024 8.521"/>
    <polygon points="9.687 9.51 12.059 5.03 16.399 8.002"/>
    <polygon points="12.344 4.772 15.146 3.504 16.462 7.476"/>
    <polygon points="15.61 3.53 18.281 4.772 16.868 7.423"/>
    <polygon points="15.224 2.063 17.304 3.823 15.47 3.065"/>
  </g>
</svg>
