<svg xmlns="http://www.w3.org/2000/svg" width="32" height="32" viewBox="0 0 32 32">
  <g fill="#4A4A4A" fill-rule="evenodd">
    <path d="M4 19.0113525L4 24 16 24 16 19.0113525 4 19.0113525zM15.9999997 23.0126954L5 23 5 20 15.9999997 20 15.9999997 23.0126954zM27.0143434 20L27.0143434 23.0305581 21.020752 23.0305581 21.937256 22.3365479 19.8648087 20 27.0143434 20zM18.9917603 19.0144653L21.8890381 22.3015746 19.6421829 22.3971913 20.2816257 24 28 24 28 19.0144653 18.9917603 19.0144653zM28 17L28 12 4 12 4 17 16.5599146 17 28 17zM5 15.9999999L5 13 27 13 27 15.9999999 5 15.9999999zM5 5.99621582L26.9994513 5.99621582 26.9994507 9 5 9 5 5.99621582zM4 5L4 10 28 10 28 5 4 5z"/>
    <path d="M16.4525147,16.9604492 L21.8132324,22.2237549 L19.5769043,22.3974609 L21.6296387,27.7248535 L20.081665,28.5137939 L18.1571478,22.9165099 L16.4525147,25.0845947 L16.4525147,16.9604492 Z M15.190038,13.6642347 L15.3316269,27.9060211 L17.6411134,25.4194331 L19.4626394,30.2378756 L23.4733613,28.4020658 L21.557495,23.5461621 L24.9740393,23.5461624 L15.190038,13.6642347 Z"/>
  </g>
</svg>
