<svg xmlns="http://www.w3.org/2000/svg" width="32" height="32" viewBox="0 0 32 32">
  <g fill="#4A4A4A" fill-rule="evenodd">
    <polygon points="4 19.011 4 24 16 24 16 19.011"/>
    <polygon points="18.992 19.014 21.889 22.302 19.642 22.397 20.282 24 28 24 28 19.014"/>
    <polygon points="28 17 28 12 4 12 4 17 16.56 17"/>
    <polygon points="4 5 4 10 28 10 28 5"/>
    <path d="M16.4525147,16.9604492 L21.8132324,22.2237549 L19.5769043,22.3974609 L21.6296387,27.7248535 L20.081665,28.5137939 L18.1571478,22.9165099 L16.4525147,25.0845947 L16.4525147,16.9604492 Z M15.190038,13.6642347 L15.3316269,27.9060211 L17.6411134,25.4194331 L19.4626394,30.2378756 L23.4733613,28.4020658 L21.557495,23.5461621 L24.9740393,23.5461624 L15.190038,13.6642347 Z"/>
  </g>
</svg>
