<svg xmlns="http://www.w3.org/2000/svg" width="32" height="32" viewBox="0 0 32 32">
  <g fill="none" fill-rule="evenodd" transform="translate(4 5)">
    <path fill="#005F9E" d="M18.9819277,2.77505112 L11.5,0 L4.01807229,2.77505112 C4.36445783,4.08732106 4.77088353,5.38548057 5.2373494,6.67423313 C6.46586345,6.06278119 7.74056225,5.50306748 9.05682731,5.01860941 C12.3313253,3.800409 15.6658635,3.07137014 18.9819277,2.77505112 L18.9819277,2.77505112 Z"/>
    <path fill="#FFBE00" d="M14.3865462,15.3615542 C13.3289157,16.2646217 12.3359438,17.2147239 11.403012,18.202454 C12.6638554,19.9145194 14.0263052,21.5137014 15.4811245,22.9952965 L21.57751,17.7838446 L22.9584337,9.79734151 C19.9471888,11.2319018 17.0606426,13.0756646 14.3865462,15.3615542 L14.3865462,15.3615542 Z"/>
    <path fill="#009AD9" d="M5.2373494,6.67423313 C3.40381526,7.58670757 1.66726908,8.63087935 0.0369477912,9.79263804 L1.41787149,17.7791411 L7.51425703,22.990593 C8.6688755,21.3114519 9.96666667,19.7075665 11.3983936,18.1977505 C10.3361446,16.7584867 9.34779116,15.2439673 8.43795181,13.6494888 C7.15863454,11.3824131 6.09638554,9.04948875 5.2373494,6.67423313 L5.2373494,6.67423313 Z"/>
  </g>
</svg>
