<svg xmlns="http://www.w3.org/2000/svg" width="31" height="31" viewBox="0 0 31 31">
  <g fill="none" fill-rule="evenodd" stroke="#4A4A4A" stroke-width="1.4" transform="translate(4 4)">
    <path d="M11.4,16.3 L18.05,16.3 C20.9494949,16.3 23.3,13.9494949 23.3,11.05 C23.3,8.50735073 21.4924538,6.38687648 19.0922327,5.90344848 C18.9651104,3.89204002 17.2934756,2.3 15.25,2.3 C14.3568336,2.3 13.5347039,2.60414439 12.8815296,3.11451458 C11.7908002,1.76384728 10.1212813,0.9 8.25,0.9 C4.96390574,0.9 2.3,3.56390574 2.3,6.85 C2.3,7.55645847 2.42312099,8.23416049 2.64907608,8.86281918 C1.21548877,9.42310586 0.2,10.8179629 0.2,12.45 C0.2,14.5762963 1.92370371,16.3 4.05,16.3 L5.09361979,16.3"/>
    <polygon fill="#4A4A4A" points="5.8 17 8.6 21.2 11.4 17 9.325 17.024 9.32 9.305 7.939 9.321 7.929 17.036" transform="matrix(1 0 0 -1 0 30.505)"/>
  </g>
</svg>
